<svg width="18" height="18" viewBox="0 0 18 18" fill="none" xmlns="http://www.w3.org/2000/svg">
<path d="M9.00004 0.249984C7.84899 0.242847 6.70796 0.4643 5.64314 0.901501C4.57832 1.3387 3.61089 1.98295 2.79695 2.79689C1.98301 3.61083 1.33876 4.57826 0.901562 5.64308C0.464361 6.7079 0.242908 7.84892 0.250045 8.99998C0.242908 10.151 0.464361 11.2921 0.901562 12.3569C1.33876 13.4217 1.98301 14.3891 2.79695 15.2031C3.61089 16.017 4.57832 16.6613 5.64314 17.0985C6.70796 17.5357 7.84899 17.7571 9.00004 17.75C10.1511 17.7571 11.2921 17.5357 12.3569 17.0985C13.4218 16.6613 14.3892 16.017 15.2031 15.2031C16.0171 14.3891 16.6613 13.4217 17.0985 12.3569C17.5357 11.2921 17.7572 10.151 17.75 8.99998C17.7572 7.84892 17.5357 6.7079 17.0985 5.64308C16.6613 4.57826 16.0171 3.61083 15.2031 2.79689C14.3892 1.98295 13.4218 1.3387 12.3569 0.901501C11.2921 0.4643 10.1511 0.242847 9.00004 0.249984ZM12.4031 13.375L4.62505 5.5973L5.59736 4.62498L13.375 12.403L12.4031 13.375Z" fill="#FA4D56"/>
</svg>
